<?xml version="1.0" standalone="no"?>
<!DOCTYPE svg PUBLIC "-//W3C//DTD SVG 20010904//EN"
 "http://www.w3.org/TR/2001/REC-SVG-20010904/DTD/svg10.dtd">
<svg version="1.0" xmlns="http://www.w3.org/2000/svg"
 width="256.000000pt" height="256.000000pt" viewBox="0 0 256.000000 256.000000"
 preserveAspectRatio="xMidYMid meet">
<metadata>
Created by potrace 1.11, written by Peter Selinger 2001-2013
</metadata>
<g transform="translate(0.000000,256.000000) scale(0.100000,-0.100000)"
fill="#000000" stroke="none">
<path d="M0 1280 l0 -1280 1280 0 1280 0 0 1280 0 1280 -1280 0 -1280 0 0
-1280z m1314 994 c14 -13 16 -60 16 -360 l0 -345 -121 -212 c-67 -116 -212
-367 -322 -557 -109 -190 -210 -364 -224 -387 -13 -24 -25 -43 -27 -43 -2 0
24 66 59 147 l62 148 -101 6 c-164 10 -241 41 -316 126 -71 81 -83 130 -88
351 -3 142 -1 197 8 207 10 12 41 15 145 15 113 0 134 -3 148 -17 12 -15 16
-50 19 -180 3 -162 3 -163 31 -190 27 -28 30 -28 168 -31 155 -4 187 3 216 47
17 24 18 68 21 646 2 566 4 621 19 633 27 19 267 17 287 -4z m416 -179 c-33
-76 -60 -142 -60 -147 0 -4 26 -8 58 -8 73 0 179 -23 229 -49 59 -30 138 -121
163 -189 27 -71 40 -233 20 -257 -10 -12 -39 -15 -149 -15 -93 0 -141 4 -149
12 -7 7 -12 35 -12 62 0 66 -26 116 -70 139 -30 15 -56 18 -173 15 -75 -2
-137 -2 -137 -1 0 8 334 583 337 580 1 -2 -24 -66 -57 -142z m-330 -735 c28
-39 85 -59 219 -76 210 -27 353 -72 423 -134 55 -48 103 -136 117 -214 14 -77
14 -250 0 -318 -26 -126 -106 -221 -226 -270 -56 -22 -69 -23 -318 -23 -251 0
-262 1 -319 24 -67 27 -145 94 -181 156 -32 53 -55 154 -55 237 0 93 8 98 167
98 144 0 153 -5 153 -83 0 -67 25 -117 70 -139 28 -14 61 -18 163 -18 197 0
228 21 234 164 4 69 1 86 -17 114 -26 42 -103 78 -185 87 -236 25 -410 80
-473 148 l-24 25 114 196 113 195 3 -71 c2 -51 8 -79 22 -98z"/>
</g>
</svg>
